<svg width="147" height="37" viewBox="0 0 147 37" fill="none" xmlns="http://www.w3.org/2000/svg">
<g clip-path="url(#clip0_1359_22722)">
<path d="M52.1013 11.9676C49.9001 10.68 47.5889 9.93156 45.0025 9.93156C37.6727 9.93156 31.6745 15.9187 31.6745 23.2376C31.6855 30.3804 37.2985 36.2575 44.4302 36.5876H55.0728V0.598633H52.1013V11.9676ZM52.1013 33.4069H44.4412C39.0704 33.0768 34.7671 28.6744 34.7671 23.2376C34.7671 17.6246 39.4006 13.0572 45.0135 13.0572C47.6549 13.0572 50.1863 14.0807 52.1013 15.8967V33.4069Z" fill="white"/>
<path d="M88.4204 0.609863H85.2288V36.5989H88.4204V0.609863Z" fill="white"/>
<path d="M95.244 10.0747H91.9423V36.5987H95.244V10.0747Z" fill="white"/>
<path d="M78.5592 23.2594C78.5592 28.8614 75.6317 33.4398 70.0297 33.4398C64.4277 33.4398 61.5002 28.8724 61.5002 23.2704V10.0635H58.3856V23.2594C58.3856 30.6333 62.7329 36.5434 70.0187 36.5434C77.3045 36.5434 81.6518 30.6443 81.6518 23.2704V10.0745H78.5592V23.2594Z" fill="white"/>
<path d="M118.874 10.0747L102.398 31.8112V10.0747H99.0961V36.5987H102.288L122.45 10.0747H118.874Z" fill="white"/>
<path d="M142.866 24.9323H146.003C146.058 24.2719 146.091 23.8207 146.091 23.2924C146.091 15.9625 140.137 9.96436 132.807 9.96436C125.477 9.96436 119.523 15.9075 119.523 23.2264C119.523 30.5452 125.488 36.5324 132.807 36.5324C138.376 36.5324 143.152 33.0435 145.122 28.212L141.843 27.9038C140.148 31.0955 136.736 33.4838 132.807 33.4838C127.722 33.4838 123.496 29.4446 122.748 24.9323H142.866ZM122.759 21.7406C123.551 16.81 127.81 13.1781 132.807 13.167C137.87 13.167 142.074 16.898 142.855 21.7406H122.759Z" fill="white"/>
<path d="M25.5663 21.9719L25.115 22.126L6.72431 28.0911C8.83742 32.1743 14.0762 34.6506 18.9077 33.0768C22.6387 31.8661 25.148 28.5644 25.7644 24.9655L28.9781 24.2501C28.5928 29.4338 25.137 34.2324 19.8432 35.9493C13.4489 38.0184 6.59224 34.9367 3.77475 29.0486L0.990279 29.9511L-0.000244141 26.8805L2.75121 25.978C1.38649 19.3635 5.21651 12.782 11.6439 10.724C18.5996 8.45676 26.1165 12.3418 28.3837 19.3085C28.5488 19.8037 28.6699 20.288 28.813 20.9263L27.0961 20.5411L25.7974 21.8838L25.5663 21.9719Z" fill="white"/>
<path d="M20.8557 17.9769C21.8161 17.9769 22.5947 17.1983 22.5947 16.2379C22.5947 15.2776 21.8161 14.499 20.8557 14.499C19.8954 14.499 19.1168 15.2776 19.1168 16.2379C19.1168 17.1983 19.8954 17.9769 20.8557 17.9769Z" fill="#FF0000"/>
</g>
<defs>
<clipPath id="clip0_1359_22722">
<rect width="146.091" height="36" fill="white" transform="translate(-0.000244141 0.598633)"/>
</clipPath>
</defs>
</svg>
