<svg width="179" height="45" viewBox="0 0 179 45" fill="none" xmlns="http://www.w3.org/2000/svg">
<path d="M63.7987 14.3173C61.1084 12.7435 58.2836 11.8288 55.1224 11.8288C46.1637 11.8288 38.8326 19.1464 38.8326 28.0917C38.8461 36.8218 45.7064 44.0049 54.423 44.4084H67.4306V0.421875H63.7987V14.3173ZM63.7987 40.5209H54.4364C47.8721 40.1174 42.6125 34.7368 42.6125 28.0917C42.6125 21.2314 48.2756 15.649 55.1359 15.649C58.3643 15.649 61.4581 16.9 63.7987 19.1195V40.5209Z" fill="#2D8692"/>
<path d="M108.189 0.435547H104.288V44.4221H108.189V0.435547Z" fill="#2D8692"/>
<path d="M116.529 12.0039H112.493V44.4221H116.529V12.0039Z" fill="#2D8692"/>
<path d="M96.1362 28.1186C96.1362 34.9655 92.5581 40.5613 85.7113 40.5613C78.8644 40.5613 75.2863 34.9789 75.2863 28.1321V11.9902H71.4795V28.1186C71.4795 37.1312 76.7929 44.3546 85.6978 44.3546C94.6027 44.3546 99.9161 37.1446 99.9161 28.1321V12.0037H96.1362V28.1186Z" fill="#2D8692"/>
<path d="M145.409 12.0039L125.272 38.5707V12.0039H121.237V44.4221H125.138L149.781 12.0039H145.409Z" fill="#2D8692"/>
<path d="M174.734 30.1632H178.567C178.635 29.3561 178.675 28.8046 178.675 28.159C178.675 19.2002 171.398 11.8691 162.439 11.8691C153.48 11.8691 146.203 19.133 146.203 28.0782C146.203 37.0235 153.494 44.3412 162.439 44.3412C169.245 44.3412 175.083 40.077 177.491 34.1718L173.483 33.7952C171.411 37.6961 167.241 40.6151 162.439 40.6151C156.224 40.6151 151.059 35.6784 150.144 30.1632H174.734ZM150.158 26.2623C151.126 20.236 156.332 15.797 162.439 15.7835C168.627 15.7835 173.765 20.3436 174.72 26.2623H150.158Z" fill="#2D8692"/>
<path d="M31.367 26.5445L30.8155 26.7328L8.33797 34.0235C10.9207 39.0141 17.3236 42.0407 23.2288 40.1171C27.7889 38.6374 30.8559 34.6019 31.6091 30.2033L35.537 29.3289C35.0662 35.6646 30.8424 41.5295 24.3722 43.6279C16.5569 46.1568 8.17655 42.3904 4.73296 35.1938L1.32972 36.2968L0.11908 32.5439L3.48197 31.4408C1.81397 23.3565 6.49511 15.3124 14.3508 12.797C22.8522 10.026 32.0396 14.7744 34.8106 23.2892C35.0124 23.8945 35.1604 24.4864 35.3352 25.2666L33.2368 24.7958L31.6495 26.4369L31.367 26.5445Z" fill="#2D8692"/>
<path d="M25.6098 21.6618C26.7836 21.6618 27.7351 20.7103 27.7351 19.5365C27.7351 18.3627 26.7836 17.4111 25.6098 17.4111C24.436 17.4111 23.4844 18.3627 23.4844 19.5365C23.4844 20.7103 24.436 21.6618 25.6098 21.6618Z" fill="#FF0000"/>
</svg>
